<?xml version="1.0" encoding="UTF-8"?>
<svg version="1.1" xmlns="http://www.w3.org/2000/svg" width="512" height="512">
<path d="M0 0 C168.96 0 337.92 0 512 0 C512 168.96 512 337.92 512 512 C343.04 512 174.08 512 0 512 C0 343.04 0 174.08 0 0 Z " fill="#8B5CF6" transform="translate(0,0)"/>
<path d="M0 0 C2.5166012 4.4602514 2.34466837 8.29147638 2.3125 13.3125 C2.30686035 14.24690918 2.3012207 15.18131836 2.29541016 16.14404297 C1.85765179 42.15382473 -4.34004769 68.31063212 -8.95703125 93.84765625 C-19.42280329 149.33434659 -19.42280329 149.33434659 -24.29296875 205.49609375 C-24.32279594 206.5640493 -24.32279594 206.5640493 -24.35322571 207.65357971 C-24.44310504 211.10791494 -24.50782781 214.5604656 -24.53442383 218.01586914 C-24.55400146 219.24813232 -24.5735791 220.48039551 -24.59375 221.75 C-24.60083984 222.83796875 -24.60792969 223.9259375 -24.61523438 225.046875 C-25.05153903 228.39556861 -26.03566663 230.2797106 -28 233 C-31.46466316 235.61827284 -35.44921021 235.34564893 -39.625 235.3125 C-40.3370459 235.30831055 -41.0490918 235.30412109 -41.78271484 235.29980469 C-50.16113917 235.12133836 -57.36426502 233.37178546 -64 228 C-74.21206518 216.3882116 -72.87452208 200.50531584 -72 186 C-70.61528872 169.40804529 -68.199376 152.12367202 -64 136 C-64.63164062 136.01160156 -65.26328125 136.02320313 -65.9140625 136.03515625 C-71.02560525 136.0867136 -76.06125304 135.95504827 -81.15625 135.53125 C-90.38703206 134.84512077 -99.62326952 134.6517009 -108.875 134.4375 C-110.64193442 134.39417847 -112.4088616 134.35056055 -114.17578125 134.30664062 C-118.45044527 134.20101911 -122.72518644 134.09937711 -127 134 C-127.11029541 134.72775635 -127.22059082 135.4555127 -127.33422852 136.20532227 C-128.49870463 143.56775934 -130.09697169 150.71878212 -131.9375 157.9375 C-134.53881073 168.45519379 -136.4053782 178.89989663 -137.71191406 189.64990234 C-137.98530226 191.88010132 -138.28118866 194.10592817 -138.5859375 196.33203125 C-139.29201827 201.58175114 -139.96465454 206.81675966 -140.23828125 212.109375 C-140.27356934 212.78307129 -140.30885742 213.45676758 -140.34521484 214.15087891 C-140.43158056 215.998374 -140.49590016 217.8468627 -140.55859375 219.6953125 C-141.21296637 224.59442081 -143.06022598 227.90359697 -146.25 231.625 C-154.85623286 238.17506392 -167.2865439 238.44934951 -177.63671875 238.53125 C-181 238 -181 238 -183.33203125 236.59375 C-188.57783962 228.4363337 -187.36287619 217.40919056 -187.3125 208.0625 C-187.31001251 207.32679779 -187.30752502 206.59109558 -187.30496216 205.83309937 C-187.2446185 194.28551784 -186.55420407 183.28023197 -184 172 C-183.73171387 170.78989258 -183.46342773 169.57978516 -183.18701172 168.33300781 C-177.58853971 143.17707941 -177.58853971 143.17707941 -176 140 C-176.72960937 140.144375 -177.45921875 140.28875 -178.2109375 140.4375 C-185.12026243 141.66582443 -191.74026113 142.19309548 -198.75 142.1875 C-199.54841309 142.18814453 -200.34682617 142.18878906 -201.16943359 142.18945312 C-206.86487145 142.13512855 -206.86487145 142.13512855 -208 141 C-207.86720836 134.49320951 -205.38754141 130.69429748 -201 126 C-194.30377529 119.61937605 -184.66617863 113.3152052 -175.45458984 111.49780273 C-172.69376292 110.93209253 -170.48002987 110.34763263 -168 109 C-165.93192902 105.74654744 -165.28272109 102.30565015 -164.5 98.5625 C-163.95894502 96.3911127 -163.40907059 94.22190877 -162.8515625 92.0546875 C-162.56313477 90.90967773 -162.27470703 89.76466797 -161.97753906 88.58496094 C-160.27399812 82.3375096 -158.07730181 76.27351388 -155.875 70.1875 C-155.46701172 69.03902588 -155.05902344 67.89055176 -154.63867188 66.70727539 C-151.83727874 58.94065052 -148.69353064 51.38706128 -145 44 C-168.13863376 46.20537957 -185.92207153 49.64921461 -203.7109375 65.59375 C-206 67 -206 67 -208.64453125 66.93359375 C-212.15498889 65.54221833 -212.80653295 63.71899611 -214.26953125 60.375 C-216.37616945 53.52560949 -215.32688368 47.59377387 -212.36328125 41.203125 C-202.46921061 25.21385325 -182.30954985 18.97778795 -164.99047852 14.69140625 C-155.60988263 12.52631095 -146.09305997 11.34009586 -136.53295898 10.28222656 C-134.92694411 10.10328168 -133.32204026 9.91379469 -131.71899414 9.70996094 C-125.74682002 8.96883492 -119.8275069 8.78275702 -113.8125 8.75 C-112.85408203 8.729375 -111.89566406 8.70875 -110.90820312 8.6875 C-105.53208864 8.65777718 -101.59177078 8.8655855 -97 12 C-93.85083138 16.72375293 -94.46433491 21.46909656 -95 27 C-97.40221692 37.04671019 -97.40221692 37.04671019 -100.5625 40.91015625 C-102.57466171 43.8354457 -102.71305806 46.42377586 -103.1875 49.9375 C-104.48219752 58.38109678 -106.64411999 66.52772635 -108.9375 74.75 C-109.27354248 75.95648193 -109.60958496 77.16296387 -109.95581055 78.40600586 C-112.1856273 86.31368169 -114.58202384 94.14157748 -117 102 C-86.805 102.495 -86.805 102.495 -56 103 C-55.34 99.37 -54.68 95.74 -54 92 C-53.55198152 90.09201859 -53.07791403 88.18952359 -52.5546875 86.30078125 C-52.15286255 84.84720215 -52.15286255 84.84720215 -51.74291992 83.36425781 C-51.31329956 81.8536377 -51.31329956 81.8536377 -50.875 80.3125 C-50.56860596 79.23452148 -50.26221191 78.15654297 -49.9465332 77.04589844 C-35.55930675 27.08873609 -35.55930675 27.08873609 -21 12 C-20.33097656 11.26652344 -19.66195312 10.53304687 -18.97265625 9.77734375 C-13.52666826 4.0177672 -8.43460089 -0.82288789 0 0 Z " fill="#FEFDFE" transform="translate(473,137)"/>
<path d="M0 0 C0.7927684 -0.00570007 1.5855368 -0.01140015 2.40232849 -0.01727295 C4.07037046 -0.0266499 5.73843034 -0.03322752 7.40649414 -0.03710938 C9.90350391 -0.04675872 12.39966879 -0.07782901 14.89648438 -0.109375 C38.86805584 -0.26919834 63.08227332 5.53831277 80.859375 22.50390625 C91.12450485 33.53532884 95.13643865 46.25247044 94.93359375 61.140625 C94.92263672 62.28217041 94.91167969 63.42371582 94.90039062 64.59985352 C94.52836495 79.05821792 89.55012946 89.8176282 79.359375 100.265625 C75.06941419 104.17631619 70.39091867 107.30604519 65.37109375 110.203125 C68.46737127 112.700123 71.59607805 115.14965135 74.74609375 117.578125 C75.52726563 118.19171875 76.3084375 118.8053125 77.11328125 119.4375 C78.45737441 120.48859016 79.81301601 121.52555755 81.19140625 122.53125 C92.00599758 130.88112051 98.07813447 143.84734159 100.96875 156.90234375 C103.17570856 175.00797466 102.1445565 192.03125622 91.0546875 207.125 C90.49910156 207.81078125 89.94351563 208.4965625 89.37109375 209.203125 C88.70207031 210.03328125 88.03304687 210.8634375 87.34375 211.71875 C73.00053065 228.55753827 50.13301385 237.90218313 28.37109375 240.203125 C27.60514893 240.2863501 26.8392041 240.3695752 26.05004883 240.45532227 C6.82870792 242.39579566 -11.90307311 242.00904324 -30.62890625 237.203125 C-32.23390277 236.82351866 -33.83937734 236.44592812 -35.4453125 236.0703125 C-57.24839108 230.82105515 -81.52561061 222.62022519 -96.62890625 205.203125 C-99.2773446 200.63169011 -100.23088469 197.5206012 -99.62890625 192.203125 C-98.56640625 190.265625 -98.56640625 190.265625 -96.62890625 189.203125 C-90.85498188 188.83853441 -85.7584354 189.8752921 -80.19140625 191.203125 C-79.36447266 191.39390625 -78.53753906 191.5846875 -77.68554688 191.78125 C-75.66508259 192.24840937 -73.64676078 192.72481874 -71.62890625 193.203125 C-71.68111328 192.13964844 -71.68111328 192.13964844 -71.734375 191.0546875 C-72.84379555 147.41747928 -59.63840952 83.87052933 -28.86328125 51.23828125 C-24.92269548 47.64904141 -21.09833599 45.57890779 -15.75390625 44.765625 C-13.62890625 45.203125 -13.62890625 45.203125 -11.62890625 48.203125 C-11.17223688 52.87333044 -11.29086819 57.57536842 -11.31640625 62.265625 C-11.31822906 62.94773041 -11.32005188 63.62983582 -11.32192993 64.33261108 C-11.36730798 74.38924498 -11.97800968 84.02956041 -14.12841797 93.87207031 C-14.69130524 96.49375209 -15.19549567 99.12338919 -15.6953125 101.7578125 C-17.39017785 110.57727025 -19.10807621 119.35647348 -21.40234375 128.04296875 C-26.86750474 149.24103772 -28.30341482 170.20577445 -29.23687744 192.03585815 C-29.45127402 196.82345636 -29.86035985 201.47163601 -30.62890625 206.203125 C-10.373361 210.39665585 11.17075289 214.22802767 30.05859375 203.203125 C31.51149233 202.2256323 32.95187124 201.22889969 34.37109375 200.203125 C35.27859375 199.605 36.18609375 199.006875 37.12109375 198.390625 C45.00009256 190.73048727 48.25791096 181.85722363 48.57421875 171.04296875 C48.8066937 153.53923407 47.81526155 137.71393575 35.37109375 124.203125 C34.68144531 124.36425781 33.99179688 124.52539062 33.28125 124.69140625 C23.043983 126.49151629 9.81513707 126.26537637 0.37109375 121.453125 C-2.98978335 118.93246717 -4.77870132 116.97754306 -6.62890625 113.203125 C-7.09119466 109.4387765 -6.95914508 107.03843498 -5.56640625 103.515625 C-1.21557643 98.32269909 4.80221605 96.17062394 11.37109375 95.203125 C16.73004975 95.11990441 22.08714327 95.39590129 27.43554688 95.72070312 C33.13358209 96.06217647 33.13358209 96.06217647 38.17114258 93.87084961 C45.17039293 84.64814106 46.62617722 70.31773015 45.37109375 59.203125 C43.74191394 51.15362714 40.82316371 44.4698715 34.37109375 39.203125 C31.14663693 37.23318341 27.85826031 35.64957029 24.37109375 34.203125 C23.52933594 33.8525 22.68757813 33.501875 21.8203125 33.140625 C2.45376116 25.727591 -24.33404676 29.83795428 -42.8671875 37.55078125 C-46.14709289 39.05256943 -49.3897414 40.61544628 -52.62890625 42.203125 C-55.24859035 43.46450389 -57.87546159 44.71013114 -60.50390625 45.953125 C-61.11032959 46.24678955 -61.71675293 46.5404541 -62.34155273 46.84301758 C-68.68968573 49.85552849 -74.55381113 51.75803442 -81.62890625 51.203125 C-82.28890625 50.543125 -82.94890625 49.883125 -83.62890625 49.203125 C-83.16195134 40.44157624 -75.94108933 32.82740271 -69.7734375 27.0078125 C-56.70938327 16.01401823 -42.09261156 7.86825289 -25.62890625 3.203125 C-24.54029297 2.88408203 -24.54029297 2.88408203 -23.4296875 2.55859375 C-15.75460753 0.46264853 -7.91677419 0.04580342 0 0 Z " fill="#FEFDFE" transform="translate(136.62890625,135.796875)"/>
<path d="M0 0 C0.33 0 0.66 0 1 0 C1 13.53 1 27.06 1 41 C-12.53 41 -26.06 41 -40 41 C-36.77794772 39.38897386 -33.66489916 38.09649079 -30.3125 36.8125 C-16.32964928 30.99481758 -7.86955879 20.70813891 -2 7 C-1.17794005 4.65968578 -0.55034658 2.42152494 0 0 Z " fill="#000000" transform="translate(511,471)"/>
<path d="M0 0 C13.53 0 27.06 0 41 0 C41 13.53 41 27.06 41 41 C39.38897386 37.77794772 38.09649079 34.66489916 36.8125 31.3125 C30.99481758 17.32964928 20.70813891 8.86955879 7 3 C4.65968578 2.17794005 2.42152494 1.55034658 0 1 C0 0.67 0 0.34 0 0 Z " fill="#000000" transform="translate(471,0)"/>
<path d="M0 0 C13.53 0 27.06 0 41 0 C37.77794772 1.61102614 34.66489916 2.90350921 31.3125 4.1875 C17.32964928 10.00518242 8.86955879 20.29186109 3 34 C2.17794005 36.34031422 1.55034658 38.57847506 1 41 C0.67 41 0.34 41 0 41 C0 27.47 0 13.94 0 0 Z " fill="#000000" transform="translate(0,0)"/>
<path d="M0 0 C1.61857992 3.23715984 2.94284144 6.38624531 4.25 9.75 C6.52146149 15.21611931 9.11619238 19.55584203 13 24 C13.71542969 24.88945312 13.71542969 24.88945312 14.4453125 25.796875 C21.17431411 33.43885673 31.33603298 37.47306985 41 40 C41 40.33 41 40.66 41 41 C27.47 41 13.94 41 0 41 C0 27.47 0 13.94 0 0 Z " fill="#000000" transform="translate(0,471)"/>
</svg>
